<svg width="143" height="44" viewBox="0 0 143 44" fill="none" xmlns="http://www.w3.org/2000/svg">
    <path d="M1.78602 29.7566C1.27998 29.7566 0.848361 29.5769 0.491156 29.2176C0.163719 28.8582 0 28.4241 0 27.915V8.33193C0 7.82289 0.163719 7.40368 0.491156 7.0743C0.848361 6.71498 1.27998 6.53532 1.78602 6.53532C2.32183 6.53532 2.75345 6.71498 3.08089 7.0743C3.40833 7.40368 3.57205 7.82289 3.57205 8.33193V14.2608L3.03624 13.3175C3.21484 12.3893 3.5274 11.491 3.9739 10.6226C4.45017 9.72431 5.04552 8.9308 5.75992 8.2421C6.47433 7.52346 7.29293 6.9695 8.21571 6.58023C9.13848 6.16102 10.1506 5.95142 11.2519 5.95142C11.9068 5.95142 12.5022 6.11611 13.038 6.44548C13.6035 6.74492 13.8863 7.1791 13.8863 7.74803C13.8863 8.37685 13.7226 8.84097 13.3952 9.14041C13.0677 9.43984 12.6956 9.58956 12.2789 9.58956C11.8919 9.58956 11.5198 9.5147 11.1626 9.36498C10.8054 9.18532 10.3589 9.09549 9.82313 9.09549C9.07895 9.09549 8.33477 9.3051 7.5906 9.72431C6.87619 10.1136 6.20643 10.6825 5.58132 11.4311C4.98598 12.1797 4.49482 13.0331 4.10785 13.9913C3.75065 14.9195 3.57205 15.9226 3.57205 17.0006V27.915C3.57205 28.4241 3.39344 28.8582 3.03624 29.2176C2.7088 29.5769 2.29206 29.7566 1.78602 29.7566Z"
          fill="#DD6F53"/>
    <path d="M26.3951 29.7564C24.0595 29.7564 22.0157 29.2733 20.264 28.307C18.5122 27.3407 17.14 26.0191 16.1473 24.3423C15.1839 22.637 14.7021 20.676 14.7021 18.4592C14.7021 15.9866 15.1985 13.8835 16.1911 12.1498C17.213 10.3877 18.5268 9.05198 20.1326 8.14252C21.7676 7.20463 23.4901 6.73569 25.3003 6.73569C26.6433 6.73569 27.9425 6.97727 29.1979 7.46042C30.4534 7.94357 31.5628 8.65409 32.5263 9.59197C33.4897 10.5014 34.2634 11.6098 34.8474 12.9172C35.4313 14.1961 35.7378 15.6314 35.767 17.2229C35.767 17.6776 35.5918 18.0613 35.2415 18.374C34.8911 18.6866 34.4824 18.8429 34.0153 18.8429H16.7167L15.9284 15.9014H32.789L32.0883 16.4982V15.5603C31.9716 14.3951 31.5628 13.4003 30.8621 12.5761C30.1906 11.7235 29.3585 11.0698 28.3659 10.6151C27.4024 10.1604 26.3805 9.93302 25.3003 9.93302C24.4244 9.93302 23.5485 10.0893 22.6726 10.402C21.826 10.6862 21.0523 11.1693 20.3516 11.8514C19.6801 12.5051 19.1253 13.3577 18.6874 14.4093C18.2787 15.4608 18.0743 16.7256 18.0743 18.2034C18.0743 19.8518 18.41 21.3013 19.0815 22.5518C19.7822 23.8023 20.7457 24.797 21.9719 25.536C23.1982 26.2465 24.6288 26.6017 26.2637 26.6017C27.2856 26.6017 28.1761 26.4738 28.9352 26.218C29.6943 25.9623 30.3512 25.6496 30.9059 25.2802C31.4606 24.8823 31.9278 24.4844 32.3073 24.0865C32.6869 23.8307 33.0518 23.7028 33.4022 23.7028C33.8401 23.7028 34.1904 23.8449 34.4532 24.1291C34.7452 24.4133 34.8911 24.7544 34.8911 25.1523C34.8911 25.6354 34.6576 26.0617 34.1904 26.4312C33.373 27.3122 32.2635 28.0938 30.8621 28.7759C29.4607 29.4296 27.9717 29.7564 26.3951 29.7564Z"
          fill="#DD6F53"/>
    <path d="M44.405 27.5822C44.405 28.0654 44.2299 28.4775 43.8795 28.8185C43.5584 29.1596 43.1496 29.3301 42.6533 29.3301C42.1277 29.3301 41.7044 29.1596 41.3833 28.8185C41.0621 28.4775 40.9015 28.0654 40.9015 27.5822V8.65409C40.9015 8.17094 41.0621 7.77305 41.3833 7.46042C41.7336 7.11937 42.1569 6.94885 42.6533 6.94885C43.1496 6.94885 43.5584 7.11937 43.8795 7.46042C44.2299 7.77305 44.405 8.17094 44.405 8.65409V27.5822ZM42.6533 4.09257C41.9234 4.09257 41.3833 3.95047 41.0329 3.66626C40.6826 3.38206 40.5074 2.94154 40.5074 2.3447V1.74787C40.5074 1.15104 40.6971 0.710516 41.0767 0.426309C41.4562 0.142103 41.9964 0 42.6971 0C43.3978 0 43.9233 0.142103 44.2737 0.426309C44.624 0.710516 44.7992 1.15104 44.7992 1.74787V2.3447C44.7992 2.94154 44.6094 3.38206 44.2299 3.66626C43.8795 3.95047 43.354 4.09257 42.6533 4.09257Z"
          fill="#DD6F53"/>
    <path d="M49.4283 25.8344C49.1656 25.4649 49.0488 25.0812 49.078 24.6833C49.1072 24.257 49.3553 23.8876 49.8225 23.5749C50.1144 23.376 50.4502 23.2907 50.8297 23.3191C51.2385 23.3476 51.6034 23.5323 51.9246 23.8733C52.7421 24.8112 53.6763 25.5644 54.7274 26.1328C55.7785 26.6728 57.0631 26.9428 58.5813 26.9428C59.282 26.9144 59.9827 26.8007 60.6834 26.6017C61.3841 26.4028 61.968 26.0617 62.4351 25.5786C62.9315 25.067 63.1796 24.3991 63.1796 23.5749C63.1796 22.7792 62.9315 22.1539 62.4351 21.6992C61.9388 21.216 61.2965 20.8323 60.5082 20.5481C59.7199 20.2355 58.8586 19.9655 57.9244 19.7381C56.9609 19.4824 56.012 19.1981 55.0778 18.8855C54.1435 18.5445 53.2968 18.1324 52.5377 17.6492C51.8078 17.1377 51.2093 16.5124 50.7421 15.7735C50.3042 15.0061 50.0852 14.0824 50.0852 13.0024C50.0852 11.7235 50.4356 10.6151 51.1363 9.67723C51.8662 8.73935 52.8297 8.01462 54.0267 7.50305C55.2529 6.99148 56.5813 6.73569 58.0119 6.73569C58.8294 6.73569 59.6761 6.83517 60.552 7.03411C61.4571 7.20463 62.3329 7.51726 63.1796 7.97199C64.0263 8.3983 64.7708 8.99513 65.4131 9.76249C65.6759 10.0467 65.8219 10.402 65.8511 10.8283C65.8802 11.2546 65.6905 11.6383 65.2817 11.9793C64.9606 12.2067 64.5956 12.3061 64.1869 12.2777C63.8073 12.2493 63.4862 12.1072 63.2234 11.8514C62.6103 11.1409 61.8366 10.6009 60.9023 10.2314C59.9973 9.83354 58.99 9.6346 57.8806 9.6346C57.1799 9.6346 56.4938 9.73407 55.8222 9.93302C55.1507 10.132 54.5814 10.473 54.1143 10.9562C53.6763 11.4109 53.4574 12.0504 53.4574 12.8746C53.4866 13.6419 53.7493 14.2672 54.2457 14.7503C54.742 15.2335 55.4135 15.6314 56.2602 15.944C57.1069 16.2282 58.0411 16.5124 59.063 16.7966C59.9973 17.024 60.8877 17.294 61.7344 17.6066C62.6103 17.8908 63.3986 18.2745 64.0993 18.7576C64.8 19.2408 65.3547 19.866 65.7635 20.6334C66.1722 21.3723 66.3766 22.3102 66.3766 23.447C66.3766 24.7544 65.997 25.8912 65.2379 26.8575C64.4788 27.7954 63.4716 28.5201 62.2162 29.0317C60.9899 29.5148 59.6615 29.7564 58.2309 29.7564C56.6251 29.7564 55.034 29.458 53.4574 28.8612C51.91 28.2643 50.567 27.2554 49.4283 25.8344Z"
          fill="#DD6F53"/>
    <path d="M74.8127 27.5822C74.8127 28.0654 74.6375 28.4775 74.2872 28.8185C73.966 29.1596 73.5573 29.3301 73.061 29.3301C72.5354 29.3301 72.1121 29.1596 71.7909 28.8185C71.4698 28.4775 71.3092 28.0654 71.3092 27.5822V8.65409C71.3092 8.17094 71.4698 7.77305 71.7909 7.46042C72.1413 7.11937 72.5646 6.94885 73.061 6.94885C73.5573 6.94885 73.966 7.11937 74.2872 7.46042C74.6375 7.77305 74.8127 8.17094 74.8127 8.65409V27.5822ZM73.061 4.09257C72.3311 4.09257 71.7909 3.95047 71.4406 3.66626C71.0902 3.38206 70.9151 2.94154 70.9151 2.3447V1.74787C70.9151 1.15104 71.1048 0.710516 71.4844 0.426309C71.8639 0.142103 72.4041 0 73.1048 0C73.8055 0 74.331 0.142103 74.6813 0.426309C75.0317 0.710516 75.2069 1.15104 75.2069 1.74787V2.3447C75.2069 2.94154 75.0171 3.38206 74.6376 3.66626C74.2872 3.95047 73.7617 4.09257 73.061 4.09257Z"
          fill="#DD6F53"/>
    <path d="M90.1556 6.94336C91.4405 6.94336 92.6357 7.16076 93.7412 7.59556C94.8468 8.00137 95.8029 8.53762 96.6097 9.20431C97.4463 9.87099 98.0887 10.5667 98.5369 11.2913C99.015 12.016 99.2541 12.6972 99.2541 13.3349L98.4025 12.8131V9.03039C98.4025 8.53762 98.5668 8.1318 98.8955 7.81295C99.2242 7.46512 99.6574 7.2912 100.195 7.2912C100.703 7.2912 101.122 7.46512 101.45 7.81295C101.809 8.1318 101.988 8.53762 101.988 9.03039V28.0745C101.988 30.4514 101.465 32.4225 100.419 33.9877C99.4035 35.553 98.029 36.727 96.296 37.5096C94.5629 38.2922 92.6207 38.6835 90.4694 38.6835C89.573 38.6835 88.587 38.5676 87.5113 38.3357C86.4356 38.1038 85.4795 37.8139 84.6428 37.4661C83.8062 37.1473 83.2683 36.8139 83.0293 36.4661C82.5811 36.1762 82.2972 35.8429 82.1777 35.466C82.0881 35.1182 82.1628 34.7849 82.4018 34.466C82.6707 34.0602 83.0144 33.8573 83.4327 33.8573C83.8809 33.8573 84.4337 33.9877 85.091 34.2486C85.3599 34.3356 85.7782 34.4805 86.346 34.6834C86.9436 34.8863 87.6009 35.0602 88.318 35.2052C89.065 35.3791 89.7971 35.466 90.5142 35.466C93.054 35.466 94.9962 34.8139 96.3408 33.5095C97.7152 32.2341 98.4025 30.5383 98.4025 28.4223V24.3787L98.8955 24.5961C98.7162 25.4077 98.3427 26.1614 97.775 26.8571C97.2372 27.5527 96.5649 28.176 95.7581 28.7267C94.9812 29.2484 94.1147 29.6688 93.1586 29.9876C92.2024 30.2775 91.2313 30.4224 90.2453 30.4224C88.1537 30.4224 86.2713 29.9151 84.598 28.9006C82.9247 27.8861 81.5951 26.4947 80.609 24.7266C79.6529 22.9584 79.1748 20.9438 79.1748 18.6829C79.1748 16.393 79.6529 14.3639 80.609 12.5957C81.5951 10.8275 82.9098 9.45069 84.5532 8.46515C86.2264 7.45062 88.0939 6.94336 90.1556 6.94336ZM90.6038 10.1609C89.08 10.1609 87.7055 10.5377 86.4804 11.2913C85.2852 12.016 84.344 13.016 83.6568 14.2914C82.9994 15.5668 82.6707 17.0307 82.6707 18.6829C82.6707 20.2771 82.9994 21.7265 83.6568 23.0309C84.344 24.3063 85.2852 25.3208 86.4804 26.0744C87.7055 26.8281 89.08 27.2049 90.6038 27.2049C92.1576 27.2049 93.5321 26.8426 94.7273 26.1179C95.9225 25.3643 96.8637 24.3497 97.5509 23.0743C98.2381 21.7989 98.5818 20.3351 98.5818 18.6829C98.5818 17.0017 98.2381 15.5234 97.5509 14.248C96.8637 12.9725 95.9225 11.9725 94.7273 11.2479C93.5321 10.5232 92.1576 10.1609 90.6038 10.1609Z"
          fill="#DD6F53"/>
    <path d="M127.21 21.7725C126.394 21.9491 125.601 22.1002 124.855 22.216L125.245 24.689C125.601 24.6321 125.966 24.5713 126.339 24.4986C126.372 24.4437 126.403 24.3907 126.435 24.3357C126.798 23.6939 127.096 23.0207 127.33 22.3181L127.212 21.7705L127.21 21.7725ZM122.523 22.7675C121.95 23.7037 121.226 24.4672 120.354 25.058C120.545 25.0639 120.737 25.0658 120.933 25.0658C121.489 25.0658 122.082 25.0403 122.694 24.9952L122.523 22.7675Z"
          fill="#DD6F53"/>
    <path d="M122.769 22.3378C122.691 22.4831 122.608 22.6264 122.524 22.7677L122.695 24.9953C122.082 25.0405 121.49 25.066 120.934 25.066C120.738 25.066 120.544 25.064 120.355 25.0581C120.259 25.1229 120.161 25.1877 120.061 25.2485C118.921 25.9453 117.657 26.2907 116.263 26.2907C114.87 26.2907 113.608 25.9433 112.467 25.2485C111.327 24.5537 110.424 23.5822 109.759 22.3398C109.093 21.0974 108.76 19.6902 108.76 18.122C108.76 16.5538 109.093 15.0936 109.759 13.8375C110.424 12.5774 111.327 11.602 112.467 10.9052C113.176 10.4715 113.935 10.1731 114.744 10.0102C115.231 9.91211 115.739 9.86108 116.261 9.86108H116.263C117.657 9.86108 118.917 10.2085 120.059 10.9033C121.197 11.6 122.102 12.5755 122.767 13.8355C123.435 15.0936 123.766 16.5205 123.766 18.12C123.766 19.7196 123.435 21.0935 122.767 22.3378M126.432 11.8591C125.394 9.99454 123.98 8.54216 122.19 7.50586C120.399 6.46956 118.422 5.95142 116.261 5.95142C114.1 5.95142 112.124 6.46956 110.336 7.50586C108.544 8.54216 107.131 9.99454 106.094 11.8591C105.058 13.7236 104.54 15.81 104.54 18.122C104.54 20.434 105.058 22.5027 106.094 24.3378C107.131 26.1729 108.546 27.6076 110.336 28.6439C112.126 29.6802 114.102 30.1984 116.261 30.1984C118.42 30.1984 120.399 29.6802 122.19 28.6439C123.927 27.639 125.307 26.2593 126.336 24.5007C125.963 24.5714 125.598 24.6342 125.242 24.6911L124.852 22.2181C125.596 22.1004 126.389 21.9512 127.207 21.7726L127.325 22.3221C127.764 21.0228 127.984 19.6215 127.984 18.122C127.984 15.8119 127.466 13.7236 126.43 11.8591"
          fill="#DD6F53"/>
    <path d="M117.332 10.5108C117.332 10.5108 117.079 10.9288 116.739 11.5942L114.508 10.4597C114.592 10.2949 114.671 10.1418 114.743 10.0063C115.23 9.90821 115.738 9.85718 116.262 9.85718L117.33 10.5088L117.332 10.5108Z"
          fill="#0099DB"/>
    <path d="M113.453 12.8325C113.117 13.702 112.852 14.5499 112.662 15.3487L115.1 15.9218C115.262 15.2309 115.494 14.493 115.788 13.7295L113.453 12.8306V12.8325ZM114.811 18.1612V18.0906L112.309 18.0709V18.1612C112.309 19.1975 112.479 20.1416 112.817 20.9698L115.133 20.0258C114.917 19.4998 114.809 18.8717 114.809 18.1612M131.896 20.5537C131.093 20.7912 130.306 21.013 129.559 21.2073L130.193 23.6292C130.968 23.4271 131.782 23.1974 132.609 22.9521L131.896 20.5537ZM116.214 21.4232L114.715 23.4271C115.445 23.9707 116.34 24.3868 117.374 24.6596L118.01 22.2397C117.288 22.0493 116.683 21.7765 116.214 21.4251M127.327 22.3241L127.209 21.7765C126.393 21.9531 125.6 22.1042 124.854 22.22L125.245 24.693C125.6 24.6361 125.965 24.5753 126.338 24.5026C126.795 24.4182 127.264 24.324 127.741 24.22L127.327 22.3221V22.3241ZM122.522 22.7696L122.501 22.5027C121.667 22.5655 120.889 22.5792 120.189 22.5478L120.071 25.0463C120.163 25.0502 120.257 25.0541 120.354 25.06C120.544 25.0659 120.736 25.0679 120.933 25.0679C121.488 25.0679 122.081 25.0424 122.693 24.9972L122.522 22.7696Z"
          fill="#0099DB"/>
    <path d="M142.543 18.7046L138.049 24.1452C137.739 24.522 137.136 24.42 136.967 23.9646L136.167 21.8135C135.776 21.947 135.393 22.0746 135.015 22.1962L134.235 19.8194C134.583 19.7076 134.936 19.5878 135.295 19.4642L134.436 17.1522C134.263 16.687 134.665 16.214 135.148 16.3102L142.176 17.6801C142.647 17.7743 142.848 18.3337 142.543 18.7066"
          fill="#0099DB"/>
    <path d="M6.07916 43.6146H5.52341L3.85618 38.879L2.20029 43.6146H1.64455L0 37.8675H0.657819L1.95077 42.4537L3.57264 37.8675H4.1057L5.76159 42.4652L7.06588 37.8675H7.7237L6.07916 43.6146Z"
          fill="#0098D6"/>
    <path d="M12.7273 40.3158V40.902H8.97324V41.1434C8.97324 41.7564 9.12068 42.2353 9.41557 42.5801C9.71045 42.925 10.1377 43.0974 10.6972 43.0974C11.3777 43.0974 11.8692 42.8637 12.1716 42.3962L12.6706 42.7526C12.2775 43.3733 11.631 43.6836 10.7312 43.6836C9.97509 43.6836 9.3891 43.4614 8.97324 43.0169C8.55738 42.5648 8.34945 41.9403 8.34945 41.1434V40.3158C8.34945 39.5035 8.53469 38.8828 8.90519 38.4537C9.28325 38.0169 9.82765 37.7985 10.5384 37.7985C11.2491 37.7985 11.7898 38.0169 12.1603 38.4537C12.5383 38.8828 12.7273 39.5035 12.7273 40.3158ZM8.97324 40.3158V40.3273H12.1036V40.3158C12.1036 39.6874 11.9712 39.2085 11.7066 38.879C11.442 38.5495 11.0526 38.3847 10.5384 38.3847C10.0242 38.3847 9.63484 38.5495 9.3702 38.879C9.10556 39.2085 8.97324 39.6874 8.97324 40.3158Z"
          fill="#0098D6"/>
    <path d="M21.0564 40.3158V40.902H17.3023V41.1434C17.3023 41.7564 17.4497 42.2353 17.7446 42.5801C18.0395 42.925 18.4667 43.0974 19.0262 43.0974C19.7067 43.0974 20.1982 42.8637 20.5007 42.3962L20.9997 42.7526C20.6065 43.3733 19.96 43.6836 19.0603 43.6836C18.3042 43.6836 17.7182 43.4614 17.3023 43.0169C16.8864 42.5648 16.6785 41.9403 16.6785 41.1434V40.3158C16.6785 39.5035 16.8638 38.8828 17.2343 38.4537C17.6123 38.0169 18.1567 37.7985 18.8675 37.7985C19.5782 37.7985 20.1188 38.0169 20.4893 38.4537C20.8674 38.8828 21.0564 39.5035 21.0564 40.3158ZM17.3023 40.3158V40.3273H20.4326V40.3158C20.4326 39.6874 20.3003 39.2085 20.0357 38.879C19.771 38.5495 19.3816 38.3847 18.8675 38.3847C18.3533 38.3847 17.9639 38.5495 17.6993 38.879C17.4346 39.2085 17.3023 39.6874 17.3023 40.3158Z"
          fill="#0098D6"/>
    <path d="M23.0795 43.6146H22.4557V37.8675H23.0795V38.6491C23.3895 38.0821 23.9452 37.7985 24.7467 37.7985C25.4045 37.7985 25.9149 38.0054 26.2778 38.4192C26.6483 38.833 26.8336 39.4307 26.8336 40.2123V43.6146H26.2098V40.2238C26.2098 39.6108 26.0737 39.1549 25.8015 38.856C25.5369 38.5495 25.1626 38.3962 24.6787 38.3962C24.1645 38.3962 23.7675 38.5533 23.4878 38.8675C23.2156 39.1817 23.0795 39.6146 23.0795 40.1664V43.6146Z"
          fill="#0098D6"/>
    <path d="M28.1421 41.971C28.1421 41.4422 28.3084 41.0399 28.6411 40.7641C28.9813 40.4882 29.4577 40.3503 30.0701 40.3503H31.726V39.6376C31.726 39.1625 31.6202 38.8369 31.4085 38.6606C31.2043 38.4844 30.8338 38.3962 30.297 38.3962C29.8811 38.3962 29.5673 38.4384 29.3556 38.5227C29.1515 38.607 28.97 38.7832 28.8112 39.0514L28.3349 38.7181C28.5315 38.3809 28.7772 38.1434 29.0721 38.0054C29.3745 37.8675 29.7866 37.7985 30.3083 37.7985C31.0418 37.7985 31.5635 37.9365 31.8735 38.2123C32.191 38.4882 32.3498 38.9633 32.3498 39.6376V43.6146H31.726V42.902C31.4538 43.4231 30.917 43.6836 30.1155 43.6836C29.4879 43.6836 29.0002 43.538 28.6524 43.2468C28.3122 42.948 28.1421 42.5227 28.1421 41.971ZM31.726 41.4767V40.9135H30.0701C29.2006 40.9135 28.7658 41.2698 28.7658 41.9824C28.7658 42.7181 29.2157 43.0859 30.1155 43.0859C30.6524 43.0859 31.0531 42.9633 31.3177 42.7181C31.5899 42.4652 31.726 42.0514 31.726 41.4767Z"
          fill="#0098D6"/>
    <path d="M33.9414 35.6836H34.5652V38.5916C34.8903 38.0629 35.4612 37.7985 36.2778 37.7985C36.981 37.7985 37.5254 38.0169 37.911 38.4537C38.2966 38.8905 38.4894 39.5112 38.4894 40.3158V41.1434C38.4894 41.9556 38.3004 42.584 37.9223 43.0284C37.5443 43.4652 36.9961 43.6836 36.2778 43.6836C35.4461 43.6836 34.8752 43.4346 34.5652 42.9365V43.6146H33.9414V35.6836ZM36.2324 43.0974C36.7617 43.0974 37.1662 42.9288 37.446 42.5916C37.7257 42.2468 37.8656 41.7641 37.8656 41.1434V40.3158C37.8656 39.6874 37.7257 39.2085 37.446 38.879C37.1738 38.5495 36.7693 38.3847 36.2324 38.3847C35.1209 38.3847 34.5652 39.0054 34.5652 40.2468V41.2468C34.5803 42.4805 35.136 43.0974 36.2324 43.0974Z"
          fill="#0098D6"/>
    <path d="M39.7895 41.8675V35.6836H40.4132V41.7066C40.4132 42.197 40.4851 42.5418 40.6287 42.7411C40.7724 42.9403 41.0597 43.0399 41.4907 43.0399V43.6376C40.8631 43.6376 40.4208 43.4997 40.1637 43.2238C39.9142 42.948 39.7895 42.4959 39.7895 41.8675Z"
          fill="#0098D6"/>
    <path d="M46.9186 40.3158V40.902H43.1645V41.1434C43.1645 41.7564 43.3119 42.2353 43.6068 42.5801C43.9017 42.925 44.3289 43.0974 44.8884 43.0974C45.5689 43.0974 46.0604 42.8637 46.3629 42.3962L46.8619 42.7526C46.4687 43.3733 45.8222 43.6836 44.9225 43.6836C44.1664 43.6836 43.5804 43.4614 43.1645 43.0169C42.7486 42.5648 42.5407 41.9403 42.5407 41.1434V40.3158C42.5407 39.5035 42.726 38.8828 43.0965 38.4537C43.4745 38.0169 44.0189 37.7985 44.7297 37.7985C45.4404 37.7985 45.981 38.0169 46.3515 38.4537C46.7296 38.8828 46.9186 39.5035 46.9186 40.3158ZM43.1645 40.3158V40.3273H46.2948V40.3158C46.2948 39.6874 46.1625 39.2085 45.8979 38.879C45.6332 38.5495 45.2438 38.3847 44.7297 38.3847C44.2155 38.3847 43.8261 38.5495 43.5615 38.879C43.2968 39.2085 43.1645 39.6874 43.1645 40.3158Z"
          fill="#0098D6"/>
    <path d="M51.3801 38.4537H50.6543V37.8675H51.3801V36.6031H52.0039V37.8675H53.399V38.4537H52.0039V41.6721C52.0039 42.1778 52.0644 42.5265 52.1854 42.7181C52.3064 42.9096 52.5862 43.0054 53.0247 43.0054H53.399V43.6146H53.002C52.3971 43.6146 51.9737 43.4805 51.7317 43.2123C51.4973 42.9365 51.3801 42.4805 51.3801 41.8445V38.4537Z"
          fill="#0098D6"/>
    <path d="M56.6384 38.3962C56.2074 38.3962 55.8709 38.5572 55.6289 38.879C55.387 39.1932 55.266 39.6185 55.266 40.1549V43.6146H54.6422V37.8675H55.266V38.6491C55.5307 38.0821 56.007 37.7985 56.6951 37.7985C57.368 37.7985 57.9011 38.0629 58.2942 38.5916L57.7725 38.9824C57.4776 38.5916 57.0996 38.3962 56.6384 38.3962Z"
          fill="#0098D6"/>
    <path d="M58.5786 41.971C58.5786 41.4422 58.7449 41.0399 59.0776 40.7641C59.4179 40.4882 59.8942 40.3503 60.5067 40.3503H62.1626V39.6376C62.1626 39.1625 62.0567 38.8369 61.845 38.6606C61.6409 38.4844 61.2704 38.3962 60.7335 38.3962C60.3176 38.3962 60.0039 38.4384 59.7922 38.5227C59.588 38.607 59.4065 38.7832 59.2478 39.0514L58.7714 38.7181C58.968 38.3809 59.2137 38.1434 59.5086 38.0054C59.8111 37.8675 60.2231 37.7985 60.7449 37.7985C61.4783 37.7985 62 37.9365 62.31 38.2123C62.6276 38.4882 62.7864 38.9633 62.7864 39.6376V43.6146H62.1626V42.902C61.8904 43.4231 61.3535 43.6836 60.552 43.6836C59.9245 43.6836 59.4368 43.538 59.089 43.2468C58.7487 42.948 58.5786 42.5227 58.5786 41.971ZM62.1626 41.4767V40.9135H60.5067C59.6371 40.9135 59.2024 41.2698 59.2024 41.9824C59.2024 42.7181 59.6523 43.0859 60.552 43.0859C61.0889 43.0859 61.4896 42.9633 61.7543 42.7181C62.0265 42.4652 62.1626 42.0514 62.1626 41.4767Z"
          fill="#0098D6"/>
    <path d="M66.306 42.7755L68.2228 37.8675H68.9146L66.6236 43.6146H66.0111L63.6974 37.8675H64.3893L66.306 42.7755Z"
          fill="#0098D6"/>
    <path d="M73.8995 40.3158V40.902H70.1454V41.1434C70.1454 41.7564 70.2928 42.2353 70.5877 42.5801C70.8826 42.925 71.3098 43.0974 71.8693 43.0974C72.5498 43.0974 73.0413 42.8637 73.3437 42.3962L73.8428 42.7526C73.4496 43.3733 72.8031 43.6836 71.9033 43.6836C71.1472 43.6836 70.5612 43.4614 70.1454 43.0169C69.7295 42.5648 69.5216 41.9403 69.5216 41.1434V40.3158C69.5216 39.5035 69.7068 38.8828 70.0773 38.4537C70.4554 38.0169 70.9998 37.7985 71.7105 37.7985C72.4213 37.7985 72.9619 38.0169 73.3324 38.4537C73.7104 38.8828 73.8995 39.5035 73.8995 40.3158ZM70.1454 40.3158V40.3273H73.2757V40.3158C73.2757 39.6874 73.1433 39.2085 72.8787 38.879C72.6141 38.5495 72.2247 38.3847 71.7105 38.3847C71.1964 38.3847 70.807 38.5495 70.5423 38.879C70.2777 39.2085 70.1454 39.6874 70.1454 40.3158Z"
          fill="#0098D6"/>
    <path d="M75.2987 41.8675V35.6836H75.9225V41.7066C75.9225 42.197 75.9944 42.5418 76.138 42.7411C76.2817 42.9403 76.569 43.0399 77 43.0399V43.6376C76.3724 43.6376 75.9301 43.4997 75.673 43.2238C75.4235 42.948 75.2987 42.4959 75.2987 41.8675Z"
          fill="#0098D6"/>
</svg>
